<mxfile host="diagram-viewer.giteeusercontent.com" modified="2024-09-20T09:50:44.885Z" agent="5.0 (Macintosh; Intel Mac OS X 10_15_7) AppleWebKit/537.36 (KHTML, like Gecko) Chrome/128.0.0.0 Safari/537.36" version="${version}" etag="7ZZ9NiG6Y52NVCmQr80T">
  <diagram id="0" name="第 1 页">
    <mxGraphModel dx="781" dy="707" grid="1" gridSize="10" guides="1" tooltips="1" connect="1" arrows="1" fold="1" page="1" pageScale="1" pageWidth="827" pageHeight="1169" math="0" shadow="0">
      <root>
        <mxCell id="0" />
        <mxCell id="1" parent="0" />
        <mxCell id="KDFbkQkQZXD3blIwpzzs-2" value="jiezhi" style="text;whiteSpace=wrap;html=1;" vertex="1" parent="1">
          <mxGeometry x="90" y="60" width="60" height="40" as="geometry" />
        </mxCell>
        <mxCell id="KDFbkQkQZXD3blIwpzzs-3" value="" style="shape=tape;whiteSpace=wrap;html=1;" vertex="1" parent="1">
          <mxGeometry x="340" y="310" width="120" height="100" as="geometry" />
        </mxCell>
        <mxCell id="KDFbkQkQZXD3blIwpzzs-4" value="Horizontal Container" style="swimlane;horizontal=0;" vertex="1" parent="1">
          <mxGeometry x="300" y="260" width="200" height="200" as="geometry" />
        </mxCell>
        <mxCell id="KDFbkQkQZXD3blIwpzzs-5" value="" style="shape=callout;whiteSpace=wrap;html=1;perimeter=calloutPerimeter;" vertex="1" parent="1">
          <mxGeometry x="340" y="320" width="120" height="80" as="geometry" />
        </mxCell>
        <mxCell id="KDFbkQkQZXD3blIwpzzs-6" value="" style="shape=step;perimeter=stepPerimeter;whiteSpace=wrap;html=1;fixedSize=1;" vertex="1" parent="1">
          <mxGeometry x="340" y="320" width="120" height="80" as="geometry" />
        </mxCell>
        <mxCell id="KDFbkQkQZXD3blIwpzzs-7" value="" style="shape=step;perimeter=stepPerimeter;whiteSpace=wrap;html=1;fixedSize=1;" vertex="1" parent="1">
          <mxGeometry x="340" y="320" width="120" height="80" as="geometry" />
        </mxCell>
      </root>
    </mxGraphModel>
  </diagram>
</mxfile>
